
<svg xmlns="http://www.w3.org/2000/svg" viewBox="0 0 55 55">
	<style type="text/css">
		.st0{fill:url(#SVGID_1_);}
		.st1{opacity:0.3531;fill-rule:evenodd;clip-rule:evenodd;fill:#5C5C5C;enable-background:new    ;}
		.st2{fill-rule:evenodd;clip-rule:evenodd;fill:#FFFFFF;}
	</style>
	<linearGradient id="SVGID_1_" gradientUnits="userSpaceOnUse" x1="13.0099" y1="43.077" x2="13.0099" y2="43.0599" gradientTransform="matrix(469.775 0 0 -411.725 -6084.2378 17759.8633)">
		<stop  offset="0" style="stop-color:#D2E8EF"/>
		<stop  offset="1" style="stop-color:#757574"/>
	</linearGradient>
	<path id="terminal-path-2" d="M4.5,5.7h46c1.1,0,1.9,0.9,1.9,1.9v39.8c0,1.1-0.9,1.9-1.9,1.9h-46c-1.1,0-1.9-0.9-1.9-1.9V7.6
		C2.6,6.5,3.4,5.7,4.5,5.7z"/>
	<path class="st0" d="M50.4,49.9H4.6c-1.4,0-2.6-1.2-2.6-2.6V7.7c0-1.4,1.2-2.6,2.6-2.6h45.9c1.4,0,2.6,1.2,2.6,2.6v39.6
		C53,48.7,51.9,49.9,50.4,49.9z M4.6,5.7c-1.1,0-2,0.9-2,2v39.6c0,1.1,0.9,2,2,2h45.9c1.1,0,2-0.9,2-2V7.7c0-1.1-0.9-2-2-2H4.6z"/>
	<rect id="Rectangle-2" x="5.7" y="8.8" class="st1" width="43.5" height="37.3"/>
	<polygon class="st2" points="8.1,17.4 8.1,19.3 15.6,16.2 15.6,14.8 8.1,11.8 8.1,13.6 13.2,15.4 13.2,15.6 "/>
	<polygon class="st2" points="22.9,21.5 22.9,20 15.6,20 15.6,21.5 "/>
</svg>
