<svg xmlns="http://www.w3.org/2000/svg" width="0" height="0">

	<svg id="terminal-cursor-loading" viewBox="0 0 24 34" cache="false">
		<g fill="var(--color-1)" class="cursor-loading">
			<rect x="1" y="6" width="6" height="6"/>
			<rect x="9" y="6" width="6" height="6"/>
			<rect x="17" y="6" width="6" height="6"/>
			<rect x="17" y="14" width="6" height="6"/>
			<rect x="17" y="22" width="6" height="6"/>
			<rect x="9" y="22" width="6" height="6"/>
			<rect x="1" y="22" width="6" height="6"/>
			<rect x="1" y="14" width="6" height="6"/>
		</g>
		<style>
			.cursor-loading rect:nth-child(1) { animation: cursorBlink 800ms infinite; }
			.cursor-loading rect:nth-child(2) { animation: cursorBlink 800ms 100ms infinite; }
			.cursor-loading rect:nth-child(3) { animation: cursorBlink 800ms 200ms infinite; }
			.cursor-loading rect:nth-child(4) { animation: cursorBlink 800ms 300ms infinite; }
			.cursor-loading rect:nth-child(5) { animation: cursorBlink 800ms 400ms infinite; }
			.cursor-loading rect:nth-child(6) { animation: cursorBlink 800ms 500ms infinite; }
			.cursor-loading rect:nth-child(7) { animation: cursorBlink 800ms 600ms infinite; }
			.cursor-loading rect:nth-child(8) { animation: cursorBlink 800ms 700ms infinite; }
		</style>
	</svg>

	<svg id="terminal-cursor-classic" viewBox="0 0 24 34" cache="false">
		<path fill="var(--color-1)" stroke="var(--color-2)" d="M19,30.6c0,1.3-1.1,2.4-2.4,2.4H3.4c-1.3,0-2.4-1.1-2.4-2.4V3.4C1.1,2.1,2.1,1,3.4,1h13.2C17.9,1,19,2.1,19,3.4L19,30.6 L19,30.6z"/>
	</svg>
	
	<svg id="terminal-cursor-heart" viewBox="0 0 24 34" cache="false">
		<path fill="var(--color-1)" stroke="var(--color-2)" d="M12,28.2c-0.2,0-0.4-0.1-0.5-0.3l-7.6-8.8c-0.1-0.1-2.8-3-2.8-6.5c0-4.3,2.2-6.8,5.8-6.8C9,5.8,11,7.8,12,9
			c1-1.1,3-3.1,5.1-3.1c3.7,0,5.8,2.5,5.8,6.8c0,3.5-2.7,6.4-2.8,6.5l-7.6,8.7C12.4,28.1,12.2,28.2,12,28.2z"/>
	</svg>
	
	<svg id="link" viewBox="0 0 24 34">
		<path fill="#a5a5a5" d="M23.8,16.5L16,8.7c-0.3-0.3-0.7-0.3-0.9,0l-1.7,1.7c-0.3,0.3-0.3,0.7,0,0.9l3.8,3.8H0.7
			c-0.4,0-0.7,0.3-0.7,0.7v2.2c0,0.4,0.3,0.7,0.7,0.7h16.4l-3.8,3.8c-0.3,0.3-0.3,0.7,0,0.9l1.7,1.7c0.3,0.3,0.7,0.3,0.9,0l7.8-7.8
			C24.1,17.2,24.1,16.8,23.8,16.5z"/>
	</svg>
	
	<svg id="input" viewBox="0 0 24 34">
		<path fill="#a5a5a5" d="M18.2,17.5l-7.8,7.8c-0.3,0.3-0.7,0.3-0.9,0l-1.7-1.7c-0.3-0.3-0.3-0.7,0-0.9l5.6-5.6l-5.6-5.6
			c-0.3-0.3-0.3-0.7,0-0.9l1.7-1.7c0.3-0.3,0.7-0.3,0.9,0l7.8,7.8C18.5,16.8,18.5,17.2,18.2,17.5z"/>
	</svg>
	
	<svg id="output" viewBox="0 0 24 34">
		<path fill="#a5a5a5" d="M5.1,16.5l7.8-7.8c0.3-0.3,0.7-0.3,0.9,0l1.5,1.5c0.3,0.3,0.3,0.7,0,0.9L9.6,17l5.8,5.8
			c0.3,0.3,0.3,0.7,0,0.9l-1.5,1.5c-0.3,0.3-0.7,0.3-0.9,0l-7.8-7.8C4.9,17.2,4.9,16.8,5.1,16.5z"/>
		<path fill="#a5a5a5" d="M17.1,19.2c-0.3,0.3-0.7,0.3-0.9,0l-1.7-1.7c-0.3-0.3-0.3-0.7,0-0.9l1.7-1.7c0.3-0.3,0.7-0.3,0.9,0l1.7,1.7
			c0.3,0.3,0.3,0.7,0,0.9L17.1,19.2z"/>
	</svg>

	<svg id="offline" viewBox="0 0 24 34">
		<style type="text/css">
			.st0{fill:none;stroke:#2c2;stroke-width:3;stroke-miterlimit:10;}
		</style>
		<circle class="st0" cx="12" cy="17" r="7.5"/>
	</svg>

	<svg id="online" viewBox="0 0 24 34">
		<style type="text/css">
			.st0{fill:#3e3;stroke:#3e3;stroke-width:3;stroke-miterlimit:10;}
		</style>
		<circle class="st0" cx="12" cy="17" r="7.5"/>
	</svg>

</svg>