<svg xmlns="http://www.w3.org/2000/svg" width="0" height="0">
	<svg id="terminal-cursor-loading" viewBox="0 0 480 680" nocache="1">
		<g fill="var(--color-1)" class="cursor-loading">
			<rect x="38" y="139" width="100" height="100"/>
			<rect x="188" y="139" width="100" height="100"/>
			<rect x="338" y="139" width="100" height="100"/>
			<rect x="338" y="289" width="100" height="100"/>
			<rect x="338" y="439" width="100" height="100"/>
			<rect x="188" y="439" width="100" height="100"/>
			<rect x="38" y="439" width="100" height="100"/>
			<rect x="38" y="289" width="100" height="100"/>
		</g>
		<style>
			.cursor-loading rect:nth-child(1) { animation: cursorBlink 800ms infinite; }
			.cursor-loading rect:nth-child(2) { animation: cursorBlink 800ms 100ms infinite; }
			.cursor-loading rect:nth-child(3) { animation: cursorBlink 800ms 200ms infinite; }
			.cursor-loading rect:nth-child(4) { animation: cursorBlink 800ms 300ms infinite; }
			.cursor-loading rect:nth-child(5) { animation: cursorBlink 800ms 400ms infinite; }
			.cursor-loading rect:nth-child(6) { animation: cursorBlink 800ms 500ms infinite; }
			.cursor-loading rect:nth-child(7) { animation: cursorBlink 800ms 600ms infinite; }
			.cursor-loading rect:nth-child(8) { animation: cursorBlink 800ms 700ms infinite; }
		</style>
	</svg>

	<svg id="terminal-cursor-classic" viewBox="0 0 480 680" nocache="1">
		<path class="cursor-blink" fill="var(--color-1)" stroke="var(--color-2)" stroke-width="30" d="M379.979,596.948c0,24.329-19.725,44.052-44.053,44.052H85.072c-24.328,0-44.051-19.723-44.051-44.052V86.051 C41.021,61.725,60.744,42,85.072,42h250.855c24.328,0,44.051,19.725,44.051,44.051L379.979,596.948L379.979,596.948z"/>
	</svg>
	
	<svg id="terminal-cursor-heart" viewBox="0 0 480 680" nocache="1">
		<path class="cursor-blink" fill="var(--color-1)" stroke="var(--color-2)" stroke-width="30" d="M240,563.98c-3.92,0-7.842-1.75-10.782-5.25L76.304,383.164c-1.96-2.042-55.872-60.662-55.872-130.656 c0-85.451,43.864-136.487,117.136-136.487c42.884,0,83.073,40.247,102.433,62.995c19.36-22.748,59.548-62.995,102.433-62.995 c73.272,0,117.136,51.036,117.136,136.487c0,69.994-53.911,128.614-56.116,131.239L250.783,558.73 C247.841,562.23,243.921,563.98,240,563.98z"/>
	</svg>
	
	<svg id="link" viewBox="0 0 480 680">
		<path fill="#a5a5a5" d="M591.641,325.93L359.637,93.925c-7.818-7.815-20.324-7.815-28.142,0l-51.904,51.904c-7.815,7.817-7.815,20.323,0,28.141 L392.122,286.5H-97.504c-11.046,0-20,8.954-20,20v67c0,11.046,8.954,20,20,20h489.626L279.591,506.03 c-7.815,7.816-7.815,20.325,0,28.141l51.904,51.903c7.817,7.816,20.325,7.816,28.142,0L591.641,354.07 C599.458,346.253,599.458,333.747,591.641,325.93z"/>
	</svg>
	
	<svg id="input" viewBox="0 0 480 680">
		<path fill="#a5a5a5" d="M396.346,374.57L164.342,606.574c-7.817,7.817-20.324,7.817-28.142,0l-51.904-51.903c-7.816-7.815-7.816-20.324,0-28.141 L250.327,360.5L84.296,194.47c-7.816-7.817-7.816-20.324,0-28.141l51.904-51.904c7.817-7.816,20.324-7.816,28.142,0L396.346,346.43 C404.163,354.247,404.163,366.753,396.346,374.57z"/>
	</svg>
	
	<svg id="output" viewBox="0 0 480 680">
		<g fill="#a5a5a5">
			<path d="M6.898,338.181l232.004-232.005c7.816-7.816,20.324-7.816,28.143,0l44.831,44.833c7.815,7.817,7.815,20.324,0,28.141 L138.775,352.25l173.102,173.101c7.815,7.815,7.815,20.324,0,28.141l-44.832,44.833c-7.818,7.817-20.323,7.817-28.143,0 L6.898,366.32C-0.918,358.504-0.918,345.998,6.898,338.181z"/>
			<path d="M363.7,418.127c-7.741,7.742-20.293,7.742-28.033,0l-51.86-51.86c-7.74-7.742-7.74-20.291,0-28.033l51.86-51.859 c7.74-7.742,20.292-7.742,28.033-0.002l51.859,51.861c7.74,7.742,7.74,20.291,0,28.033L363.7,418.127z"/>
		</g>
	</svg>
</svg>